Patient4_TMGait_0pt7_01_right_30_EMG.mot
version=1
nRows=36
nColumns=33
inDegrees=no
endheader
time	1LAddLong	2LGlutMax	3LGlutMed	4LIliopsoas	5LSemiMemb	6LBicFemLong	7LRecFem	8LVastMed	9LVastLat	10LGasMed	11LTibAnt	12lTibPost	13LPeroneusLong	14LSol	15LExtDigLong	16LFlexDigLong	17RAddLong	18RGlutMax	19RGlutMed	20RIliopsoas	21RSemiMemb	22RBicFemLong	23RRecFem	24RVastMed	25RVastLat	26RGasMed	27RTibAnt	28RTibPost	29RPeroneusLong	30RSol	31RExtDigLong	32RFlexDigLong
34.86	0.025787	0.014038	-0.083923	0.00885	0.025787	0.27451	-0.15717	0.003815	0.026398	-0.029755	0.002899	0.00946	-0.32394	-0.13794	-0.032654	0.001984	-0.095825	0.10742	-0.55176	0.027924	-0.578	0.20386	-0.31357	0.19241	0.071411	0.042725	0.23941	-0.016785	-0.16678	-0.48614	-0.006561	-0.016327
34.861	0.02121	0.005646	-0.08255	0.008087	0.031738	0.28854	-0.26154	0.003052	0.076599	0.1033	0.007324	0.003662	-0.34744	-0.2536	-0.068359	-0.001068	-0.048828	0.10788	0.42343	-0.044556	-0.26367	-0.023193	-0.21774	0.10727	0.022125	0.040894	0.47394	-0.010681	-0.21927	-0.49439	0.000153	-0.017242
34.862	0.002747	-0.015259	-0.019379	0.001678	0.045624	0.27008	-0.25589	-0.00061	0.037384	0.11597	0.001068	-0.00351	0.032349	-0.21576	-0.012665	0.006561	-0.04364	0.025024	0.22934	-0.056	-0.1709	-0.04425	-0.20874	0.14618	0.00885	0.011749	0.22079	0.016632	0.089264	-0.23025	-0.004883	-0.018921
34.863	-0.025482	0.032196	0.020447	0.003204	0.027924	0.19882	-0.17227	-0.015869	0.026855	-0.067596	0.002899	0.007935	-0.027924	-0.13351	0.054169	-0.001373	-0.033264	-0.056763	0.087738	-0.11414	0.28458	-0.13687	-0.16892	0.15045	0.019379	-0.009766	0.13382	-0.000763	0.14481	0.14801	-0.000305	-0.015259
34.864	-0.056152	0.049133	0.064545	0.00946	-0.011902	0.19058	-0.050049	-0.017395	0.033722	-0.06424	0.010529	0.016022	0.056	-0.15121	0.034027	0.002136	0.011444	-0.009766	0.11215	-0.083008	0.38437	-0.27924	-0.11017	0.10773	0.004578	-0.011902	0.039978	-0.010376	0.11185	0.59113	-0.001068	-0.0177
34.865	-0.067596	0.069885	0.063171	0.01297	-0.041656	0.19669	0.033569	-0.008087	0.023346	-0.033112	0.007019	0.0177	0.074615	-0.15778	0.04364	-0.003052	0.005341	-0.001373	-0.21835	-0.006714	0.37689	-0.37125	-0.14893	0.071716	-0.020142	0.001221	-0.005798	-0.024109	-0.33859	0.71365	-0.000916	-0.009613
34.866	-0.04837	0.11475	0.073853	-0.00351	-0.079193	0.24124	-0.001221	0.006409	-0.00824	0.008087	0.003815	0.018311	0.1004	-0.16449	0.016022	-0.00824	-0.013428	-0.009155	-0.13489	-0.016327	0.28931	-0.27969	-0.20142	0.066681	0.014801	0.008392	-0.000763	-0.03891	-0.09201	0.58548	-0.004272	-0.01297
34.867	-0.0177	0.1416	0.059814	0.005341	-0.081787	0.25635	-0.050964	-0.001221	-0.031586	0.019379	0.001526	0.018921	0.14252	-0.159	-0.004578	-0.009613	-0.032959	-0.045624	0.14938	-0.000458	0.16922	-0.12909	-0.2385	0.008545	-0.016327	0.011292	-0.34241	-0.20889	0.16174	0.02594	-0.00824	-0.007477
34.868	-0.005341	0.14297	0.004272	0.000458	0.0177	0.21469	-0.092316	-0.00473	-0.013123	-0.024109	-0.002747	0.00351	0.053253	-0.15717	0.00473	-0.008392	-0.012207	-0.091858	-0.037842	0.073547	0.084229	0.00885	-0.14679	-0.003662	-0.018921	-0.018005	-0.47531	-0.10239	0.20371	-0.35141	0	-0.005188
34.869	0.007477	0.1326	0.02243	0.009918	-0.012817	0.23422	-0.049744	-0.018921	-0.035248	-0.034637	0.000916	0.014191	-0.006714	-0.12665	0.013733	-0.016327	-0.003052	-0.020142	0.34882	0.1355	0.023956	0.10559	-0.14358	-0.041809	-0.015869	-0.037079	0.10956	0.29327	-0.13519	-0.42282	0.001068	-0.009155
34.87	0.016937	0.11459	0.032959	0.020905	-0.073853	0.26657	-0.03952	-0.028076	-0.13062	-0.012817	0.009003	0.056763	-0.053864	-0.054626	-0.002747	-0.014343	-0.007935	0.019684	0.39887	0.10498	-0.045776	0.12543	-0.054321	-0.052032	-0.054016	-0.036774	0.13519	0.11673	-0.19852	-0.50552	-0.00473	-0.016174
34.871	0.015717	0.11612	0.020294	0.001831	-0.006104	0.28229	0.023193	-0.027924	-0.10971	-0.067596	0.005951	0.25314	-0.005493	0.014496	-0.015106	-0.016632	0.003662	-0.081482	-0.4866	0.036316	0.012665	0.087585	-0.066528	0.028229	-0.033417	-0.018158	0.26001	0.019989	-0.14236	-0.73425	-0.005798	-0.013733
34.872	0.009308	0.089874	0.009918	0.014343	0.053558	0.3154	0.021515	-0.020142	-0.071716	-0.051575	0.010986	-0.099792	0.021515	0.057373	-0.023956	-0.011597	0.005798	-0.096283	-0.32776	-0.050201	0.060425	0.008698	-0.15778	0.009308	0.000458	0.007629	0.62668	0.005493	-0.32974	-0.60577	-0.002899	-0.014038
34.873	0.009003	0.066071	-0.027466	0.01358	-0.027771	0.23758	-0.014801	-0.016327	-0.00885	0.0177	0.001068	-0.010223	0.046387	0.020447	-0.004578	-0.02121	-0.006256	-0.034485	0.23773	-0.092621	0.057678	-0.092773	-0.24643	0.067139	0.048523	0.020905	0.14114	0.012817	-0.44998	-0.98908	0.004578	-0.014648
34.874	0.005341	0.051727	-0.00824	0.0177	-0.023499	0.16785	0.004425	-0.018921	-0.018311	0.008698	0.003204	0.067139	0.019226	-0.21286	-0.019226	-0.023041	-0.039978	-0.050049	0.62454	-0.10254	-0.019226	-0.18402	-0.20065	0.14587	0.052185	0.010529	0.041504	0.007629	-0.51193	-1.0092	-0.001526	-0.024414
34.875	0.025024	0.019073	-0.062714	0.000763	0.029602	-0.090942	-0.026703	-0.026398	-0.01236	-0.011139	-0.00351	-0.007477	-0.015869	-0.2417	-0.019073	-0.032196	-0.006409	-0.014648	0.67871	-0.11154	-0.077515	-0.26932	-0.21103	0.023804	0.019684	0.010071	0.014191	-0.005035	-0.55878	-0.39124	-0.000458	-0.023956
34.876	0.05661	-0.030365	-0.097198	-0.010376	0.063171	-0.47669	0.016937	-0.024872	-0.018311	-0.037842	0.012054	-0.026093	-0.005493	-0.19379	-0.008698	-0.022888	0.029297	-0.074615	-0.078278	-0.12985	-0.14206	-0.067749	-0.28381	-0.16403	0.023499	0.008545	-0.32318	-0.061035	-0.41031	0.50949	-0.006561	-0.016479
34.877	0.051117	0.000458	-0.12207	-0.006256	0.13138	-0.62592	0.061188	-0.013123	-0.038147	-0.035095	0.002899	-0.021057	-0.00061	-0.19089	0.012207	-0.00061	0.032349	-0.032043	-0.37766	-0.19379	-0.016479	-0.039063	-0.3244	-0.12878	0.010986	-0.032043	-0.41077	-0.26199	-0.30624	0.81909	-0.001678	-0.014343
34.878	0.023804	-0.051117	-0.079193	0.027008	0.14832	-0.3537	0.091705	-0.015564	0.011139	0.057831	0.000916	-0.035248	0.004883	-0.13886	0.011902	-0.013428	0.053711	-0.054321	-0.019073	-0.08606	-0.005646	-0.054321	-0.30853	-0.065765	-0.024872	-0.070648	-0.41962	-0.16983	-0.13565	0.42725	-0.005646	-0.011597
34.879	-0.003052	0.011749	-0.077515	0.017853	0.092468	-0.2385	0.028687	-0.015259	0.027771	-0.065002	0.005646	-0.025024	0.028076	-0.15015	0.011139	-0.009003	0.072784	-0.11368	0.11704	0.089417	-0.27985	0.003815	-0.24368	-0.054474	-0.049133	-0.027161	-0.39291	0.27084	0.51865	0.23697	-0.001221	0.000305
34.88	-0.014801	0.053101	-0.080109	-0.008087	0.060425	-0.16403	0.029144	-0.024567	0.025635	-0.033569	-0.006256	-0.03006	0.068359	-0.18906	0.007324	-0.02121	0.028381	-0.24048	0.34576	0.24399	-0.47287	0.12314	-0.25528	0.001984	-0.018005	-0.002441	-0.4071	0.14694	0.83481	0.336	-0.003357	-0.008087
34.881	-0.002289	0.058136	-0.15015	-0.007935	0.084839	-0.074158	0.010529	-0.035095	0.12329	0.10925	-0.001678	-0.026093	0.089874	-0.21469	0.013733	-0.019379	0.040894	-0.2446	0.29816	0.21347	-0.064392	-0.055237	-0.34805	-0.048065	-0.053406	-0.046692	-0.22644	-0.040741	0.49652	0.86472	-0.002899	-0.00946
34.882	-0.003967	-0.074005	-0.17716	-0.014648	0.078278	-0.019226	-0.040131	-0.0383	0.15579	0.07431	0.006561	-0.017242	0.058594	-0.16373	0.020294	-0.010376	0.054016	-0.18051	0.17425	0.063477	0.06546	-0.25253	-0.50934	-0.026703	-0.00946	-0.083923	-0.093994	-0.16556	0.41565	1.089	0.001221	-0.015259
34.883	-0.000153	-0.094757	-0.15579	-0.001373	0.039673	0.12344	-0.1329	-0.032196	0.23117	0.028229	-0.012512	-0.012207	0.096741	-0.10727	0.006866	-0.012054	0	-0.17044	0.43961	0.004425	-0.035858	-0.36682	-0.46906	0.16235	0.095673	-0.045471	0.093689	-0.25238	0.13367	0.65674	-0.004883	-0.006409
34.884	0.006256	-0.091248	-0.046997	0.006104	-0.025024	0.18875	-0.19043	-0.029144	0.24567	0.055847	-0.00473	-0.03006	0.38315	-0.057068	0.039215	-0.021362	-0.052643	-0.24292	0.69366	0.050659	0.00946	-0.44876	-0.28198	0.11139	0.039063	0.012054	0.30075	0.327	-0.089874	0.91858	-0.001221	0.000305
34.885	-0.005798	-0.11124	-0.080261	0.012665	-0.028229	0.062561	-0.22705	-0.019073	0.177	0.049438	0.002747	0.022736	0.82535	0.016937	0.074768	-0.017548	-0.062561	-0.25559	0.35202	0.11398	-0.003357	-0.19928	-0.20111	0.013733	0.070496	0.048218	0.30807	0.13733	0.072327	1.0091	0.003662	-0.001678
34.886	-0.009308	-0.0383	-0.065002	0.00412	-0.004883	0.07019	-0.2002	-0.013428	0.012665	0.012512	-0.00824	0.15198	0.20554	0.093536	0.11108	-0.010223	-0.056915	-0.25681	0.4451	0.075989	0.1091	0.006714	-0.26703	0.007324	0.002289	0.059052	0.27832	0.064697	0.079041	0.69824	-0.003357	0.001984
34.887	-0.005188	0.062408	0.04364	0.01236	-0.049438	0.067749	-0.19196	-0.020142	-0.17685	-0.045929	0.013123	-0.19836	-0.18738	0.1442	0.084991	-0.01236	-0.027771	-0.20081	0.26932	0.11002	0.11261	-0.078735	-0.35629	0.005493	-0.005493	0.046692	0.25253	0.000153	0.070038	-0.07431	-0.002899	-0.009766
34.888	0.009766	0.17288	0.10147	0.010071	-0.062408	-0.073395	-0.20813	-0.03067	-0.26779	-0.15884	-0.001984	-0.02182	-0.033112	0.047913	-0.068665	-0.007782	-0.008392	-0.26474	0.009918	0.082397	0.11505	-0.036774	-0.32074	-0.015106	0.033722	0.012512	0.50003	0.010986	0.079346	-0.62729	-0.004272	-0.009918
34.889	0.001831	0.25528	0.078278	0.025024	0.094299	-0.018463	-0.17853	-0.026398	-0.38467	-0.12741	0.016785	0.01297	-0.009613	-0.13794	-0.15884	-0.006256	0.018616	-0.24918	-0.21973	-0.028381	0.1503	0.052643	-0.14374	-0.06073	0.007477	-0.058594	0.62149	0.11231	-0.14328	-0.92071	-0.004272	-0.011444
34.89	-0.007935	0.31235	0.079803	0.028534	0.13886	0.12314	-0.1741	-0.023651	-0.31525	-0.039215	0.011749	0.010529	-0.28214	-0.16571	-0.059662	-0.01358	0.048218	-0.13748	-0.24429	-0.04303	0.10086	0.010071	-0.030823	-0.069275	-0.036774	-0.068359	0.57068	0.042572	-0.22446	-0.54413	-0.00351	-0.020142
34.891	-0.02121	0.34897	0.074768	0.04776	0.036621	0.34012	-0.16724	-0.016174	-0.16098	0.011292	0.002594	0.012817	-0.50034	-0.15137	-0.027618	-0.010376	0.026703	-0.11612	0.62454	-0.091858	0.09964	-0.097046	-0.020599	-0.11627	-0.13214	-0.046844	0.28061	0.013733	-0.10422	-0.76508	-0.00061	-0.017548
34.892	-0.027771	0.31311	0.020142	0.024261	-0.058746	0.50568	-0.11826	-0.023804	-0.10529	-0.01709	0.013275	0.013733	-0.42526	-0.15137	-0.052338	-0.005341	-0.010223	-0.007935	1.0677	-0.11108	0.15762	-0.046997	-0.13199	-0.14847	-0.22705	0.029449	-1.3202	-0.002289	0.20065	-0.68359	-0.005798	-0.011292
34.893	-0.03952	0.30868	-0.025482	0.001984	-0.13596	0.63248	-0.085144	-0.006561	-0.099487	0.081329	-0.00824	0.018768	-0.11765	-0.1709	-0.05661	-0.00946	-0.012665	-0.20721	0.4303	-0.11627	0.071716	-0.051422	-0.24307	-0.14725	-0.22568	0.076752	-1.3458	-0.019379	0.39124	-0.46417	-0.005188	-0.007324
34.894	-0.02533	0.3067	-0.10346	-0.013123	-0.16556	0.73441	-0.13779	-0.000458	-0.085144	0.30395	-0.010529	0.018005	-0.026398	-0.23636	-0.078583	-0.00824	-0.021515	-0.25528	0.58884	-0.1033	0.066376	-0.040283	-0.23346	-0.16602	-0.12558	0.046844	-0.67261	-0.00946	0.44327	-0.23972	0.00061	-0.007477
34.895	0.002594	0.36484	-0.15915	-0.007172	-0.12299	0.75592	-0.17578	-0.013733	-0.073242	0.34119	-0.011902	0.010681	0.033875	-0.24704	-0.070343	-0.010376	-0.02533	-0.11643	0.59525	-0.13062	0.004578	-0.010529	-0.49042	0.037384	0.080109	0.027618	-0.43564	-0.016327	0.37827	0.034485	-0.002289	-0.013275
